<svg width="143" height="36" viewBox="0 0 143 36" fill="none" xmlns="http://www.w3.org/2000/svg">
<g clip-path="url(#clip0_5469_4167)">
<path d="M12.4814 11.9781C14.1203 10.3387 16.1375 9.4874 18.4699 9.4874C18.9427 9.4874 19.384 9.51893 19.8252 9.58197C21.7478 9.86574 23.4813 8.41543 23.4813 6.46068V3.497C23.4813 1.92058 22.3152 0.596393 20.7393 0.375694C19.7937 0.249581 18.7851 0.186523 17.7764 0.186523C12.765 0.186523 8.54154 1.88906 5.10602 5.2626C1.702 8.63613 0 12.9555 0 18.1893C0 21.6574 0.756448 24.6841 2.23782 27.301C2.99427 28.6252 3.93983 29.8232 5.04298 30.9268C8.44698 34.2056 12.6705 35.8451 17.7451 35.8451C18.7851 35.8451 19.7937 35.7821 20.7708 35.656C22.3467 35.4352 23.4813 34.111 23.4813 32.5347V29.6341C23.4813 27.7108 21.7478 26.2289 19.8252 26.5128C19.3525 26.5759 18.8797 26.6072 18.3753 26.6072C16.0429 26.6072 14.0573 25.7875 12.4499 24.1796C10.8739 22.5087 10.086 20.4907 10.086 18.0947C10.086 15.9508 10.6848 14.1536 11.851 12.6718C12.0716 12.4195 12.2607 12.1988 12.4814 11.9781Z" fill="url(#paint0_linear_5469_4167)"/>
<path d="M52.9199 5.29427C52.9199 3.87548 53.4242 2.6774 54.4014 1.73156C55.3785 0.754177 56.5761 0.28125 57.9945 0.28125C59.4443 0.28125 60.6421 0.754177 61.619 1.73156C62.5962 2.70894 63.0689 3.87548 63.0689 5.29427C63.0689 6.74457 62.5962 7.94264 61.619 8.8885C60.6421 9.83434 59.4443 10.3073 57.9945 10.3073C56.5446 10.3073 55.3469 9.83434 54.3698 8.8885C53.3927 7.94264 52.9199 6.74457 52.9199 5.29427Z" fill="white"/>
<path d="M62.911 14.6582V32.7239C62.911 34.4581 61.4928 35.8768 59.7593 35.8768H56.4497C54.7162 35.8768 53.2979 34.4581 53.2979 32.7239V14.6582C53.2979 12.9242 54.7162 11.5054 56.4497 11.5054H59.7593C61.4928 11.5054 62.911 12.9242 62.911 14.6582Z" fill="url(#paint1_linear_5469_4167)"/>
<path d="M51.9744 19.0722C51.9744 18.8514 51.9744 18.6623 51.9744 18.5361C51.9429 16.7705 50.4301 11.5368 42.6764 11.5368C40.7223 11.5368 38.9888 11.9782 37.4758 12.8295C36.2151 13.5546 35.238 14.4059 34.5762 15.4148C34.45 15.5724 34.2295 15.5094 34.2295 15.3202V3.27637C34.2295 1.54231 32.8111 0.123535 31.0776 0.123535H28.0203C26.2868 0.123535 24.8684 1.54231 24.8684 3.27637V10.8117V32.7238C24.8684 34.458 26.2868 35.8767 28.0203 35.8767H31.2666C33.0001 35.8767 34.4185 34.458 34.4185 32.7238V24.3689C34.4185 23.7698 34.5446 23.2023 34.7652 22.6978C35.3956 21.2161 36.8455 20.1125 38.5475 20.144C39.6506 20.144 40.6592 20.617 41.3841 21.3421C42.1407 22.0673 42.5819 23.1077 42.5819 24.2428V26.3236V32.7553C42.5819 34.4894 44.0002 35.9082 45.7337 35.9082H48.854C50.5875 35.9082 52.0059 34.4894 52.0059 32.7553C51.9744 28.4991 52.0059 21.3105 51.9744 19.0722Z" fill="url(#paint2_linear_5469_4167)"/>
<path d="M73.8481 3.43409V32.7239C73.8481 34.4581 72.4297 35.8767 70.6962 35.8767H67.4497C65.7162 35.8767 64.2979 34.4581 64.2979 32.7239V3.43409C64.2979 1.70003 65.7162 0.28125 67.4497 0.28125H70.6962C72.4297 0.28125 73.8481 1.66849 73.8481 3.43409Z" fill="url(#paint3_linear_5469_4167)"/>
<path d="M84.722 3.43409V32.7239C84.722 34.4581 83.3036 35.8767 81.5701 35.8767H78.3236C76.5901 35.8767 75.1719 34.4581 75.1719 32.7239V3.43409C75.1719 1.70003 76.5901 0.28125 78.3236 0.28125H81.5701C83.3036 0.28125 84.722 1.66849 84.722 3.43409Z" fill="url(#paint4_linear_5469_4167)"/>
<path d="M23.4813 3.52853V6.4922C23.4813 8.44695 21.7478 9.89726 19.8252 9.61351C19.384 9.55045 18.9112 9.51893 18.4699 9.51893C16.1375 9.51893 14.1519 10.3387 12.4814 12.0097C12.2607 12.2304 12.0716 12.4511 11.8825 12.7033C5.79943 16.4552 3.24642 23.423 2.23782 27.364C0.756448 24.6841 0 21.6574 0 18.1893C0 12.9555 1.702 8.63613 5.13754 5.29412C8.57307 1.88906 12.7966 0.186523 17.808 0.186523C18.8166 0.186523 19.7937 0.249581 20.7708 0.375694C22.3152 0.596393 23.4813 1.92058 23.4813 3.52853Z" fill="url(#paint5_linear_5469_4167)"/>
<path d="M51.9742 19.0722C48.6333 20.2702 44.4412 24.3374 42.55 26.2605V24.1797C42.55 23.0447 42.1088 22.0358 41.3524 21.2791C40.6275 20.5539 39.6189 20.081 38.5158 20.081C36.8452 20.0494 35.3954 21.153 34.7334 22.6347C31.361 14.7212 26.9799 11.8206 24.8367 10.8117V3.27637C24.8367 1.54231 26.255 0.123535 27.9886 0.123535H31.0459C32.7794 0.123535 34.1976 1.54231 34.1976 3.27637V15.3202C34.1976 15.5094 34.4498 15.5724 34.5444 15.4148C35.2062 14.4059 36.1834 13.5546 37.4441 12.8295C38.957 11.9782 40.7221 11.5368 42.6446 11.5368C50.3983 11.5368 51.9111 16.7705 51.9427 18.5361C51.9742 18.6623 51.9742 18.8514 51.9742 19.0722Z" fill="url(#paint6_linear_5469_4167)"/>
<path d="M62.911 14.6582V22.2565C58.9397 19.1036 54.6216 19.0092 53.2979 19.0723V14.6582C53.2979 12.9242 54.7162 11.5054 56.4497 11.5054H59.7593C61.4928 11.5054 62.911 12.9242 62.911 14.6582Z" fill="url(#paint7_linear_5469_4167)"/>
<path d="M73.8481 3.43409V27.9947C69.7191 32.5033 65.7793 27.3011 64.2979 24.8418V3.43409C64.2979 1.70003 65.7162 0.28125 67.4497 0.28125H70.6962C72.4297 0.28125 73.8481 1.66849 73.8481 3.43409Z" fill="url(#paint8_linear_5469_4167)"/>
<path d="M84.722 3.43409V10.8433C79.2377 12.3251 76.4011 18.0002 75.1719 21.2792V3.43409C75.1719 1.70003 76.5901 0.28125 78.3236 0.28125H81.5701C83.3036 0.28125 84.722 1.66849 84.722 3.43409Z" fill="url(#paint9_linear_5469_4167)"/>
<path d="M139.848 35.8768H89.2608C87.5273 35.8768 86.1089 34.4581 86.1089 32.7241V3.59181C86.1089 1.85774 87.5273 0.438965 89.2608 0.438965H139.848C141.582 0.438965 143 1.85774 143 3.59181V32.7555C143 34.4897 141.582 35.8768 139.848 35.8768Z" fill="white"/>
<path d="M108.235 30.1069L108.172 30.17C105.934 32.377 103.129 33.449 99.8509 33.449C98.1803 33.449 96.5729 33.0707 94.997 32.377C93.421 31.6519 92.1288 30.706 91.0887 29.4765C89.3237 27.3641 88.4412 24.6526 88.4412 21.2791V5.95627C88.4412 4.22222 89.8595 2.83496 91.5931 2.83496H93.5471C95.2806 2.83496 96.699 4.22222 96.699 5.95627V21.0268C96.699 23.9275 97.7392 25.4093 99.8509 25.4093C100.765 25.4093 101.521 25.1256 102.152 24.4949C102.782 23.896 103.097 23.1707 103.097 22.2879C103.097 21.3736 102.814 20.6485 102.215 20.0494C101.616 19.4505 100.891 19.1351 100.04 19.1351C98.9053 19.1351 97.9597 18.2209 97.9597 17.0858V14.8157V13.5231C97.9597 12.325 98.9369 11.3792 100.166 11.3792C103.286 11.3792 105.934 11.8521 108.172 14.0591V14.0906C108.645 14.532 108.739 15.2571 108.424 15.8247C108.298 16.0139 108.235 16.2345 108.14 16.4237C108.109 16.4553 108.109 16.4868 108.077 16.5498C107.289 18.2523 106.848 20.144 106.848 22.1304C106.848 24.4003 107.415 26.5444 108.424 28.436C108.802 28.9404 108.708 29.6342 108.235 30.1069Z" fill="#273443"/>
<path d="M127.335 20.3015V15.0993C127.335 14.9417 127.335 14.7525 127.303 14.5633C127.24 14.2165 127.146 13.9012 126.988 13.5859C126.705 13.0184 126.295 12.5455 125.727 12.1987C124.561 11.5051 123.301 11.0322 121.882 10.8115C121.252 10.7169 120.558 10.6538 119.865 10.6538C116.587 10.6538 113.814 11.7573 111.576 13.9643C110.63 14.9101 109.905 15.9506 109.338 17.054L109.243 17.2433C108.55 18.6935 108.203 20.3331 108.203 22.0987C108.203 25.2829 109.306 27.9944 111.544 30.1698C114.161 32.7136 117.564 33.4911 121.409 33.4911H125.085C126.316 33.4911 127.314 32.4926 127.314 31.261V28.6166C127.314 27.3849 126.316 26.3865 125.085 26.3865H123.355C122.691 26.3865 121.803 26.3439 120.89 26.1861C118.696 25.8073 116.668 24.1231 116.59 21.8983C116.588 21.8398 116.587 21.7804 116.587 21.7203C116.587 20.3646 116.934 19.261 117.564 18.3782C118.195 17.527 119.046 17.0856 120.086 17.0856H120.275C121.031 17.1171 121.409 17.6847 121.409 18.2836C121.409 18.8827 121 19.5133 120.18 19.5133C119.266 19.5449 118.541 20.27 118.541 21.1843V21.7833C118.573 22.6976 119.298 23.4228 120.212 23.4228H124.183C125.917 23.4228 127.335 22.0356 127.335 20.3015Z" fill="#273443"/>
<path d="M140.825 27.8684V31.4311C140.825 32.5662 139.88 33.5121 138.714 33.5121H138.651C135.625 33.4805 132.694 32.1248 130.865 29.7286C130.771 29.6024 130.645 29.4449 130.55 29.2872C129.258 27.3956 128.659 24.9047 128.659 21.7834V6.01926C128.659 4.28519 130.078 2.89795 131.811 2.89795H133.765C135.499 2.89795 136.917 4.31673 136.917 6.01926V12.1673H137.453C139.186 12.1673 140.605 13.5545 140.605 15.2886V17.6848C140.605 19.4189 139.186 20.8061 137.453 20.8061H136.917C136.917 22.5402 137.201 23.7382 137.737 24.4002C137.894 24.5895 138.304 24.7787 138.777 24.9678C140.037 25.4407 140.825 26.5757 140.825 27.8684Z" fill="#273443"/>
</g>
<defs>
<linearGradient id="paint0_linear_5469_4167" x1="11.7407" y1="0.186523" x2="11.7407" y2="35.8451" gradientUnits="userSpaceOnUse">
<stop stop-color="#3A91F6"/>
<stop offset="1" stop-color="#3A91F6"/>
</linearGradient>
<linearGradient id="paint1_linear_5469_4167" x1="58.1044" y1="11.5054" x2="58.1044" y2="35.8768" gradientUnits="userSpaceOnUse">
<stop stop-color="#3A91F6"/>
<stop offset="1" stop-color="#3A91F6"/>
</linearGradient>
<linearGradient id="paint2_linear_5469_4167" x1="38.4372" y1="0.123535" x2="38.4372" y2="35.9082" gradientUnits="userSpaceOnUse">
<stop stop-color="#3A91F6"/>
<stop offset="1" stop-color="#3A91F6"/>
</linearGradient>
<linearGradient id="paint3_linear_5469_4167" x1="69.0731" y1="0.28125" x2="69.0731" y2="35.8767" gradientUnits="userSpaceOnUse">
<stop stop-color="#3A91F6"/>
<stop offset="1" stop-color="#3A91F6"/>
</linearGradient>
<linearGradient id="paint4_linear_5469_4167" x1="79.9469" y1="0.28125" x2="79.9469" y2="35.8767" gradientUnits="userSpaceOnUse">
<stop stop-color="#3A91F6"/>
<stop offset="1" stop-color="#3A91F6"/>
</linearGradient>
<linearGradient id="paint5_linear_5469_4167" x1="11.7407" y1="0.186523" x2="11.7407" y2="27.364" gradientUnits="userSpaceOnUse">
<stop stop-color="#3A91F6"/>
<stop offset="1" stop-color="#52B6FF"/>
</linearGradient>
<linearGradient id="paint6_linear_5469_4167" x1="38.4054" y1="0.123535" x2="38.4054" y2="26.2605" gradientUnits="userSpaceOnUse">
<stop stop-color="#3A91F6"/>
<stop offset="1" stop-color="#52B6FF"/>
</linearGradient>
<linearGradient id="paint7_linear_5469_4167" x1="58.1044" y1="11.5054" x2="58.1044" y2="22.2565" gradientUnits="userSpaceOnUse">
<stop stop-color="#3A91F6"/>
<stop offset="1" stop-color="#52B6FF"/>
</linearGradient>
<linearGradient id="paint8_linear_5469_4167" x1="69.0731" y1="0.28125" x2="69.0731" y2="29.7716" gradientUnits="userSpaceOnUse">
<stop stop-color="#3A91F6"/>
<stop offset="1" stop-color="#52B6FF"/>
</linearGradient>
<linearGradient id="paint9_linear_5469_4167" x1="79.9469" y1="0.28125" x2="79.9469" y2="21.2792" gradientUnits="userSpaceOnUse">
<stop stop-color="#3A91F6"/>
<stop offset="1" stop-color="#52B6FF"/>
</linearGradient>
<clipPath id="clip0_5469_4167">
<rect width="143" height="36" fill="white"/>
</clipPath>
</defs>
</svg>
